<svg width="451" height="328" viewBox="0 0 451 328" fill="none" xmlns="http://www.w3.org/2000/svg">
<g clip-path="url(#clip0_701_2)">
<path d="M262.707 57.8226C271.159 57.8226 278.011 50.9707 278.011 42.5186C278.011 34.0664 271.159 27.2145 262.707 27.2145C254.254 27.2145 247.402 34.0664 247.402 42.5186C247.402 50.9707 254.254 57.8226 262.707 57.8226Z" fill="#F2F2F2"/>
<path d="M381.43 284.952C404.179 267.625 415.044 238.51 408.242 210.737C408.073 210.046 407.895 209.358 407.707 208.671C403.197 192.185 392.041 176.516 375.78 171.248C362.127 166.825 347.224 170.226 332.98 168.467C305.019 165.014 283.341 142.392 268.088 118.705C252.835 95.0188 241.113 68.5053 220.845 48.9369C187.436 16.6816 132.939 9.73703 91.517 30.7328C50.0953 51.7286 23.7102 98.3095 24.8354 144.733C25.9607 191.157 53.5216 235.541 93.5469 259.09C108.251 267.741 125.257 273.869 142.181 271.725C156.867 269.864 170.21 261.974 184.826 259.631C207.806 255.948 230.64 266.338 250.516 278.445C270.392 290.552 289.59 304.902 312.177 310.515C334.108 315.965 361.278 300.3 381.43 284.952Z" fill="#F2F2F2"/>
<path d="M348.746 31.7076C348.247 31.3752 347.743 31.06 347.244 30.739C332.829 21.52 317.378 14.0306 301.211 8.42554L297.462 60.1368H273.698V0.876916C272.202 0.567405 270.694 0.27509 269.187 -3.05176e-05V60.1368H240.945C225.398 60.1368 210.488 53.961 199.494 42.968C188.501 31.975 182.325 17.0654 182.325 1.51893V1.51888C180.812 1.84559 179.31 2.19522 177.808 2.56778V60.1368H154.806L151.235 10.8271C134.621 17.1986 118.848 25.5775 104.267 35.7771C104.015 35.9491 103.763 36.1268 103.516 36.2987C102.25 37.1871 101 38.0928 99.7563 39.0098V236.289H167.548L166.35 219.695L159.758 128.59H292.504L285.912 219.695L284.714 236.289H351.755V33.7023C350.758 33.026 349.755 32.3611 348.746 31.7076ZM177.808 113.545H158.669L155.133 64.6534H177.808V113.545ZM269.187 113.545H237.042V112.576C237.042 112.11 236.95 111.649 236.772 111.219C236.593 110.789 236.332 110.398 236.002 110.069C235.673 109.74 235.282 109.479 234.851 109.302C234.421 109.124 233.96 109.033 233.494 109.034H219.519C219.054 109.034 218.593 109.125 218.164 109.303C217.734 109.481 217.343 109.742 217.014 110.071C216.685 110.4 216.424 110.79 216.246 111.22C216.068 111.65 215.977 112.111 215.977 112.576V113.545H182.325V64.6534H269.187V113.545ZM273.698 113.545V64.6534H297.136L293.599 113.545H273.698Z" fill="#3F3D56"/>
<path d="M0 248.922C4.97948 254.822 10.3653 260.366 16.1182 265.515L434.882 266.088C440.635 260.939 446.021 255.395 451 249.495L0 248.922Z" fill="#3F3D56"/>
<path d="M283.977 195.789V244.912C283.978 245.538 284.226 246.138 284.669 246.581C285.112 247.024 285.712 247.273 286.338 247.273H359.136C359.762 247.273 360.362 247.024 360.805 246.581C361.248 246.138 361.497 245.538 361.497 244.912V195.789C361.496 195.164 361.246 194.564 360.804 194.122C360.361 193.68 359.762 193.432 359.136 193.431H286.338C285.713 193.432 285.113 193.68 284.67 194.122C284.228 194.565 283.979 195.164 283.977 195.789Z" fill="#3F3D56"/>
<path d="M285.685 196.401V244.306C285.686 244.641 285.819 244.961 286.055 245.198C286.292 245.434 286.612 245.567 286.947 245.568H358.53C358.865 245.567 359.186 245.434 359.422 245.198C359.659 244.961 359.792 244.641 359.792 244.306V196.401C359.792 196.066 359.659 195.744 359.423 195.507C359.186 195.27 358.865 195.137 358.53 195.136H286.947C286.612 195.137 286.291 195.27 286.055 195.507C285.818 195.744 285.685 196.066 285.685 196.401Z" fill="#6C63FF"/>
<path d="M282.455 254.492C282.588 254.66 282.757 254.794 282.95 254.887C283.143 254.979 283.355 255.026 283.569 255.025H361.518C361.731 255.025 361.942 254.977 362.134 254.885C362.327 254.794 362.496 254.66 362.63 254.495C362.765 254.329 362.86 254.136 362.911 253.928C362.961 253.721 362.964 253.505 362.92 253.297L361.71 247.55C361.66 247.315 361.552 247.097 361.396 246.915C361.24 246.733 361.041 246.593 360.817 246.508C360.655 246.444 360.482 246.411 360.308 246.412H284.774C284.6 246.411 284.427 246.444 284.265 246.508C284.041 246.593 283.842 246.733 283.686 246.915C283.53 247.097 283.422 247.315 283.372 247.55L282.162 253.297C282.119 253.505 282.123 253.721 282.173 253.928C282.224 254.134 282.32 254.327 282.455 254.492Z" fill="#2F2E41"/>
<path d="M357.634 248.887H359.475C359.629 248.887 359.755 248.762 359.755 248.607V247.726C359.755 247.572 359.629 247.447 359.475 247.447H357.634C357.479 247.447 357.354 247.572 357.354 247.726V248.607C357.354 248.762 357.479 248.887 357.634 248.887Z" fill="#3F3D56"/>
<path d="M352.832 248.887H354.673C354.828 248.887 354.953 248.762 354.953 248.607V247.726C354.953 247.572 354.828 247.447 354.673 247.447H352.832C352.678 247.447 352.552 247.572 352.552 247.726V248.607C352.552 248.762 352.678 248.887 352.832 248.887Z" fill="#3F3D56"/>
<path d="M348.03 248.887H349.872C350.026 248.887 350.151 248.762 350.151 248.607V247.726C350.151 247.572 350.026 247.447 349.872 247.447H348.03C347.876 247.447 347.751 247.572 347.751 247.726V248.607C347.751 248.762 347.876 248.887 348.03 248.887Z" fill="#3F3D56"/>
<path d="M343.229 248.887H345.07C345.225 248.887 345.35 248.762 345.35 248.607V247.726C345.35 247.572 345.225 247.447 345.07 247.447H343.229C343.074 247.447 342.949 247.572 342.949 247.726V248.607C342.949 248.762 343.074 248.887 343.229 248.887Z" fill="#3F3D56"/>
<path d="M338.427 248.887H340.268C340.423 248.887 340.548 248.762 340.548 248.607V247.726C340.548 247.572 340.423 247.447 340.268 247.447H338.427C338.273 247.447 338.147 247.572 338.147 247.726V248.607C338.147 248.762 338.273 248.887 338.427 248.887Z" fill="#3F3D56"/>
<path d="M333.626 248.887H335.467C335.621 248.887 335.747 248.762 335.747 248.607V247.726C335.747 247.572 335.621 247.447 335.467 247.447H333.626C333.471 247.447 333.346 247.572 333.346 247.726V248.607C333.346 248.762 333.471 248.887 333.626 248.887Z" fill="#3F3D56"/>
<path d="M328.824 248.887H330.665C330.82 248.887 330.945 248.762 330.945 248.607V247.726C330.945 247.572 330.82 247.447 330.665 247.447H328.824C328.669 247.447 328.544 247.572 328.544 247.726V248.607C328.544 248.762 328.669 248.887 328.824 248.887Z" fill="#3F3D56"/>
<path d="M324.022 248.887H325.863C326.018 248.887 326.143 248.762 326.143 248.607V247.726C326.143 247.572 326.018 247.447 325.863 247.447H324.022C323.868 247.447 323.743 247.572 323.743 247.726V248.607C323.743 248.762 323.868 248.887 324.022 248.887Z" fill="#3F3D56"/>
<path d="M319.221 248.887H321.062C321.216 248.887 321.342 248.762 321.342 248.607V247.726C321.342 247.572 321.216 247.447 321.062 247.447H319.221C319.066 247.447 318.941 247.572 318.941 247.726V248.607C318.941 248.762 319.066 248.887 319.221 248.887Z" fill="#3F3D56"/>
<path d="M314.419 248.887H316.26C316.415 248.887 316.54 248.762 316.54 248.607V247.726C316.54 247.572 316.415 247.447 316.26 247.447H314.419C314.264 247.447 314.139 247.572 314.139 247.726V248.607C314.139 248.762 314.264 248.887 314.419 248.887Z" fill="#3F3D56"/>
<path d="M309.617 248.887H311.458C311.613 248.887 311.738 248.762 311.738 248.607V247.726C311.738 247.572 311.613 247.447 311.458 247.447H309.617C309.463 247.447 309.337 247.572 309.337 247.726V248.607C309.337 248.762 309.463 248.887 309.617 248.887Z" fill="#3F3D56"/>
<path d="M304.816 248.887H306.657C306.811 248.887 306.937 248.762 306.937 248.607V247.726C306.937 247.572 306.811 247.447 306.657 247.447H304.816C304.661 247.447 304.536 247.572 304.536 247.726V248.607C304.536 248.762 304.661 248.887 304.816 248.887Z" fill="#3F3D56"/>
<path d="M300.014 248.887H301.855C302.01 248.887 302.135 248.762 302.135 248.607V247.726C302.135 247.572 302.01 247.447 301.855 247.447H300.014C299.859 247.447 299.734 247.572 299.734 247.726V248.607C299.734 248.762 299.859 248.887 300.014 248.887Z" fill="#3F3D56"/>
<path d="M295.212 248.887H297.054C297.208 248.887 297.333 248.762 297.333 248.607V247.726C297.333 247.572 297.208 247.447 297.054 247.447H295.212C295.058 247.447 294.933 247.572 294.933 247.726V248.607C294.933 248.762 295.058 248.887 295.212 248.887Z" fill="#3F3D56"/>
<path d="M290.411 248.887H292.252C292.406 248.887 292.532 248.762 292.532 248.607V247.726C292.532 247.572 292.406 247.447 292.252 247.447H290.411C290.256 247.447 290.131 247.572 290.131 247.726V248.607C290.131 248.762 290.256 248.887 290.411 248.887Z" fill="#3F3D56"/>
<path d="M285.609 248.887H287.45C287.605 248.887 287.73 248.762 287.73 248.607V247.726C287.73 247.572 287.605 247.447 287.45 247.447H285.609C285.455 247.447 285.329 247.572 285.329 247.726V248.607C285.329 248.762 285.455 248.887 285.609 248.887Z" fill="#3F3D56"/>
<path d="M357.691 251.288H359.532C359.686 251.288 359.812 251.163 359.812 251.008V250.127C359.812 249.973 359.686 249.847 359.532 249.847H357.691C357.536 249.847 357.411 249.973 357.411 250.127V251.008C357.411 251.163 357.536 251.288 357.691 251.288Z" fill="#3F3D56"/>
<path d="M352.889 251.288H354.73C354.885 251.288 355.01 251.163 355.01 251.008V250.127C355.01 249.973 354.885 249.847 354.73 249.847H352.889C352.734 249.847 352.609 249.973 352.609 250.127V251.008C352.609 251.163 352.734 251.288 352.889 251.288Z" fill="#3F3D56"/>
<path d="M348.087 251.288H349.928C350.083 251.288 350.208 251.163 350.208 251.008V250.127C350.208 249.973 350.083 249.847 349.928 249.847H348.087C347.933 249.847 347.807 249.973 347.807 250.127V251.008C347.807 251.163 347.933 251.288 348.087 251.288Z" fill="#3F3D56"/>
<path d="M343.285 251.288H345.127C345.281 251.288 345.406 251.163 345.406 251.008V250.127C345.406 249.973 345.281 249.847 345.127 249.847H343.285C343.131 249.847 343.006 249.973 343.006 250.127V251.008C343.006 251.163 343.131 251.288 343.285 251.288Z" fill="#3F3D56"/>
<path d="M338.484 251.288H340.325C340.48 251.288 340.605 251.163 340.605 251.008V250.127C340.605 249.973 340.48 249.847 340.325 249.847H338.484C338.329 249.847 338.204 249.973 338.204 250.127V251.008C338.204 251.163 338.329 251.288 338.484 251.288Z" fill="#3F3D56"/>
<path d="M333.682 251.288H335.523C335.678 251.288 335.803 251.163 335.803 251.008V250.127C335.803 249.973 335.678 249.847 335.523 249.847H333.682C333.528 249.847 333.402 249.973 333.402 250.127V251.008C333.402 251.163 333.528 251.288 333.682 251.288Z" fill="#3F3D56"/>
<path d="M328.881 251.288H330.722C330.876 251.288 331.002 251.163 331.002 251.008V250.127C331.002 249.973 330.876 249.847 330.722 249.847H328.881C328.726 249.847 328.601 249.973 328.601 250.127V251.008C328.601 251.163 328.726 251.288 328.881 251.288Z" fill="#3F3D56"/>
<path d="M324.079 251.288H325.92C326.075 251.288 326.2 251.163 326.2 251.008V250.127C326.2 249.973 326.075 249.847 325.92 249.847H324.079C323.924 249.847 323.799 249.973 323.799 250.127V251.008C323.799 251.163 323.924 251.288 324.079 251.288Z" fill="#3F3D56"/>
<path d="M319.277 251.288H321.119C321.273 251.288 321.398 251.163 321.398 251.008V250.127C321.398 249.973 321.273 249.847 321.119 249.847H319.277C319.123 249.847 318.998 249.973 318.998 250.127V251.008C318.998 251.163 319.123 251.288 319.277 251.288Z" fill="#3F3D56"/>
<path d="M314.476 251.288H316.317C316.471 251.288 316.597 251.163 316.597 251.008V250.127C316.597 249.973 316.471 249.847 316.317 249.847H314.476C314.321 249.847 314.196 249.973 314.196 250.127V251.008C314.196 251.163 314.321 251.288 314.476 251.288Z" fill="#3F3D56"/>
<path d="M309.674 251.288H311.515C311.67 251.288 311.795 251.163 311.795 251.008V250.127C311.795 249.973 311.67 249.847 311.515 249.847H309.674C309.519 249.847 309.394 249.973 309.394 250.127V251.008C309.394 251.163 309.519 251.288 309.674 251.288Z" fill="#3F3D56"/>
<path d="M304.872 251.288H306.714C306.868 251.288 306.993 251.163 306.993 251.008V250.127C306.993 249.973 306.868 249.847 306.714 249.847H304.872C304.718 249.847 304.593 249.973 304.593 250.127V251.008C304.593 251.163 304.718 251.288 304.872 251.288Z" fill="#3F3D56"/>
<path d="M300.071 251.288H301.912C302.067 251.288 302.192 251.163 302.192 251.008V250.127C302.192 249.973 302.067 249.847 301.912 249.847H300.071C299.916 249.847 299.791 249.973 299.791 250.127V251.008C299.791 251.163 299.916 251.288 300.071 251.288Z" fill="#3F3D56"/>
<path d="M295.269 251.288H297.11C297.265 251.288 297.39 251.163 297.39 251.008V250.127C297.39 249.973 297.265 249.847 297.11 249.847H295.269C295.115 249.847 294.989 249.973 294.989 250.127V251.008C294.989 251.163 295.115 251.288 295.269 251.288Z" fill="#3F3D56"/>
<path d="M290.468 251.288H292.309C292.463 251.288 292.589 251.163 292.589 251.008V250.127C292.589 249.973 292.463 249.847 292.309 249.847H290.468C290.313 249.847 290.188 249.973 290.188 250.127V251.008C290.188 251.163 290.313 251.288 290.468 251.288Z" fill="#3F3D56"/>
<path d="M285.666 251.288H287.507C287.662 251.288 287.787 251.163 287.787 251.008V250.127C287.787 249.973 287.662 249.847 287.507 249.847H285.666C285.511 249.847 285.386 249.973 285.386 250.127V251.008C285.386 251.163 285.511 251.288 285.666 251.288Z" fill="#3F3D56"/>
<path d="M317.837 254.169H336.484C336.638 254.169 336.764 254.043 336.764 253.889V253.008C336.764 252.854 336.638 252.728 336.484 252.728H317.837C317.682 252.728 317.557 252.854 317.557 253.008V253.889C317.557 254.043 317.682 254.169 317.837 254.169Z" fill="#3F3D56"/>
<path d="M298.081 205.617H296.451C295.957 205.617 295.556 206.017 295.556 206.511C295.556 207.006 295.957 207.406 296.451 207.406H298.081C298.575 207.406 298.976 207.006 298.976 206.511C298.976 206.017 298.575 205.617 298.081 205.617Z" fill="white"/>
<path d="M316.723 205.617H315.093C314.599 205.617 314.198 206.017 314.198 206.511C314.198 207.006 314.599 207.406 315.093 207.406H316.723C317.217 207.406 317.618 207.006 317.618 206.511C317.618 206.017 317.217 205.617 316.723 205.617Z" fill="white"/>
<path d="M322.005 205.617H320.375C319.881 205.617 319.48 206.017 319.48 206.511C319.48 207.006 319.881 207.406 320.375 207.406H322.005C322.499 207.406 322.9 207.006 322.9 206.511C322.9 206.017 322.499 205.617 322.005 205.617Z" fill="white"/>
<path d="M311.652 205.468H301.522C301.028 205.468 300.627 205.868 300.627 206.362C300.627 206.856 301.028 207.257 301.522 207.257H311.652C312.147 207.257 312.547 206.856 312.547 206.362C312.547 205.868 312.147 205.468 311.652 205.468Z" fill="white"/>
<path d="M336.508 205.468H326.378C325.884 205.468 325.483 205.868 325.483 206.362C325.483 206.856 325.884 207.257 326.378 207.257H336.508C337.002 207.257 337.403 206.856 337.403 206.362C337.403 205.868 337.002 205.468 336.508 205.468Z" fill="white"/>
<path d="M303.052 209.656H301.422C300.928 209.656 300.528 210.056 300.528 210.55C300.528 211.045 300.928 211.445 301.422 211.445H303.052C303.547 211.445 303.947 211.045 303.947 210.55C303.947 210.056 303.547 209.656 303.052 209.656Z" fill="white"/>
<path d="M321.694 209.656H320.064C319.57 209.656 319.169 210.056 319.169 210.55C319.169 211.045 319.57 211.445 320.064 211.445H321.694C322.188 211.445 322.589 211.045 322.589 210.55C322.589 210.056 322.188 209.656 321.694 209.656Z" fill="white"/>
<path d="M326.976 209.656H325.346C324.852 209.656 324.451 210.056 324.451 210.55C324.451 211.045 324.852 211.445 325.346 211.445H326.976C327.47 211.445 327.871 211.045 327.871 210.55C327.871 210.056 327.47 209.656 326.976 209.656Z" fill="white"/>
<path d="M316.624 209.506H306.493C305.999 209.506 305.598 209.907 305.598 210.401C305.598 210.895 305.999 211.296 306.493 211.296H316.624C317.118 211.296 317.518 210.895 317.518 210.401C317.518 209.907 317.118 209.506 316.624 209.506Z" fill="white"/>
<path d="M341.48 209.506H331.349C330.855 209.506 330.454 209.907 330.454 210.401C330.454 210.895 330.855 211.296 331.349 211.296H341.48C341.974 211.296 342.374 210.895 342.374 210.401C342.374 209.907 341.974 209.506 341.48 209.506Z" fill="white"/>
<path d="M308.024 213.695H306.394C305.899 213.695 305.499 214.095 305.499 214.589C305.499 215.083 305.899 215.484 306.394 215.484H308.024C308.518 215.484 308.918 215.083 308.918 214.589C308.918 214.095 308.518 213.695 308.024 213.695Z" fill="white"/>
<path d="M326.665 213.695H325.035C324.541 213.695 324.141 214.095 324.141 214.589C324.141 215.083 324.541 215.484 325.035 215.484H326.665C327.16 215.484 327.56 215.083 327.56 214.589C327.56 214.095 327.16 213.695 326.665 213.695Z" fill="white"/>
<path d="M331.947 213.695H330.317C329.823 213.695 329.423 214.095 329.423 214.589C329.423 215.083 329.823 215.484 330.317 215.484H331.947C332.442 215.484 332.842 215.083 332.842 214.589C332.842 214.095 332.442 213.695 331.947 213.695Z" fill="white"/>
<path d="M321.595 213.545H311.464C310.97 213.545 310.569 213.946 310.569 214.44C310.569 214.934 310.97 215.335 311.464 215.335H321.595C322.089 215.335 322.49 214.934 322.49 214.44C322.49 213.946 322.089 213.545 321.595 213.545Z" fill="white"/>
<path d="M346.451 213.545H336.32C335.826 213.545 335.425 213.946 335.425 214.44C335.425 214.934 335.826 215.335 336.32 215.335H346.451C346.945 215.335 347.346 214.934 347.346 214.44C347.346 213.946 346.945 213.545 346.451 213.545Z" fill="white"/>
<path d="M312.995 217.733H311.365C310.871 217.733 310.47 218.134 310.47 218.628C310.47 219.122 310.871 219.523 311.365 219.523H312.995C313.489 219.523 313.89 219.122 313.89 218.628C313.89 218.134 313.489 217.733 312.995 217.733Z" fill="white"/>
<path d="M331.637 217.733H330.007C329.512 217.733 329.112 218.134 329.112 218.628C329.112 219.122 329.512 219.523 330.007 219.523H331.637C332.131 219.523 332.531 219.122 332.531 218.628C332.531 218.134 332.131 217.733 331.637 217.733Z" fill="white"/>
<path d="M336.919 217.733H335.289C334.794 217.733 334.394 218.134 334.394 218.628C334.394 219.122 334.794 219.523 335.289 219.523H336.919C337.413 219.523 337.813 219.122 337.813 218.628C337.813 218.134 337.413 217.733 336.919 217.733Z" fill="white"/>
<path d="M326.566 217.584H316.435C315.941 217.584 315.541 217.985 315.541 218.479C315.541 218.973 315.941 219.374 316.435 219.374H326.566C327.06 219.374 327.461 218.973 327.461 218.479C327.461 217.985 327.06 217.584 326.566 217.584Z" fill="white"/>
<path d="M316.723 233.794H315.093C314.599 233.794 314.198 234.195 314.198 234.689C314.198 235.183 314.599 235.583 315.093 235.583H316.723C317.217 235.583 317.618 235.183 317.618 234.689C317.618 234.195 317.217 233.794 316.723 233.794Z" fill="white"/>
<path d="M322.005 233.794H320.375C319.881 233.794 319.48 234.195 319.48 234.689C319.48 235.183 319.881 235.583 320.375 235.583H322.005C322.499 235.583 322.9 235.183 322.9 234.689C322.9 234.195 322.499 233.794 322.005 233.794Z" fill="white"/>
<path d="M336.508 233.943H326.378C325.884 233.943 325.483 234.344 325.483 234.838C325.483 235.332 325.884 235.733 326.378 235.733H336.508C337.002 235.733 337.403 235.332 337.403 234.838C337.403 234.344 337.002 233.943 336.508 233.943Z" fill="white"/>
<path d="M298.081 233.794H296.451C295.957 233.794 295.556 234.195 295.556 234.689C295.556 235.183 295.957 235.583 296.451 235.583H298.081C298.575 235.583 298.976 235.183 298.976 234.689C298.976 234.195 298.575 233.794 298.081 233.794Z" fill="white"/>
<path d="M311.652 233.943H301.522C301.028 233.943 300.627 234.344 300.627 234.838C300.627 235.332 301.028 235.733 301.522 235.733H311.652C312.147 235.733 312.547 235.332 312.547 234.838C312.547 234.344 312.147 233.943 311.652 233.943Z" fill="white"/>
<path d="M303.052 229.755H301.422C300.928 229.755 300.528 230.156 300.528 230.65C300.528 231.144 300.928 231.545 301.422 231.545H303.052C303.547 231.545 303.947 231.144 303.947 230.65C303.947 230.156 303.547 229.755 303.052 229.755Z" fill="white"/>
<path d="M321.694 229.755H320.064C319.57 229.755 319.169 230.156 319.169 230.65C319.169 231.144 319.57 231.545 320.064 231.545H321.694C322.188 231.545 322.589 231.144 322.589 230.65C322.589 230.156 322.188 229.755 321.694 229.755Z" fill="white"/>
<path d="M326.976 229.755H325.346C324.852 229.755 324.451 230.156 324.451 230.65C324.451 231.144 324.852 231.545 325.346 231.545H326.976C327.47 231.545 327.871 231.144 327.871 230.65C327.871 230.156 327.47 229.755 326.976 229.755Z" fill="white"/>
<path d="M316.624 229.904H306.493C305.999 229.904 305.598 230.305 305.598 230.799C305.598 231.293 305.999 231.694 306.493 231.694H316.624C317.118 231.694 317.518 231.293 317.518 230.799C317.518 230.305 317.118 229.904 316.624 229.904Z" fill="white"/>
<path d="M308.024 225.716H306.394C305.899 225.716 305.499 226.117 305.499 226.611C305.499 227.105 305.899 227.506 306.394 227.506H308.024C308.518 227.506 308.918 227.105 308.918 226.611C308.918 226.117 308.518 225.716 308.024 225.716Z" fill="white"/>
<path d="M326.665 225.716H325.035C324.541 225.716 324.141 226.117 324.141 226.611C324.141 227.105 324.541 227.506 325.035 227.506H326.665C327.16 227.506 327.56 227.105 327.56 226.611C327.56 226.117 327.16 225.716 326.665 225.716Z" fill="white"/>
<path d="M331.947 225.716H330.317C329.823 225.716 329.423 226.117 329.423 226.611C329.423 227.105 329.823 227.506 330.317 227.506H331.947C332.442 227.506 332.842 227.105 332.842 226.611C332.842 226.117 332.442 225.716 331.947 225.716Z" fill="white"/>
<path d="M321.595 225.865H311.464C310.97 225.865 310.569 226.266 310.569 226.76C310.569 227.254 310.97 227.655 311.464 227.655H321.595C322.089 227.655 322.49 227.254 322.49 226.76C322.49 226.266 322.089 225.865 321.595 225.865Z" fill="white"/>
<path d="M312.995 221.677H311.365C310.871 221.677 310.47 222.078 310.47 222.572C310.47 223.066 310.871 223.467 311.365 223.467H312.995C313.489 223.467 313.89 223.066 313.89 222.572C313.89 222.078 313.489 221.677 312.995 221.677Z" fill="white"/>
<path d="M331.637 221.677H330.007C329.512 221.677 329.112 222.078 329.112 222.572C329.112 223.066 329.512 223.467 330.007 223.467H331.637C332.131 223.467 332.531 223.066 332.531 222.572C332.531 222.078 332.131 221.677 331.637 221.677Z" fill="white"/>
<path d="M336.919 221.677H335.289C334.794 221.677 334.394 222.078 334.394 222.572C334.394 223.066 334.794 223.467 335.289 223.467H336.919C337.413 223.467 337.813 223.066 337.813 222.572C337.813 222.078 337.413 221.677 336.919 221.677Z" fill="white"/>
<path d="M326.566 221.826H316.435C315.941 221.826 315.541 222.227 315.541 222.721C315.541 223.215 315.941 223.616 316.435 223.616H326.566C327.06 223.616 327.461 223.215 327.461 222.721C327.461 222.227 327.06 221.826 326.566 221.826Z" fill="white"/>
<path d="M289.415 281.128L281.763 269.034L305.781 249.888L315.695 238.906C316.983 237.479 318.623 236.415 320.451 235.821C322.279 235.226 324.231 235.122 326.112 235.518C327.993 235.914 329.737 236.797 331.169 238.078C332.602 239.359 333.674 240.994 334.277 242.819C335.17 245.524 334.978 248.47 333.741 251.035C332.503 253.601 330.318 255.586 327.645 256.57L311.969 262.345L289.415 281.128Z" fill="#FFB6B6"/>
<path d="M109.875 193.433V252.217H151.059V193.433C151.06 193.011 150.925 192.599 150.675 192.258C150.424 191.918 150.071 191.667 149.667 191.542C149.476 191.479 149.277 191.448 149.076 191.45H111.864C111.604 191.45 111.345 191.501 111.104 191.6C110.863 191.699 110.644 191.845 110.459 192.03C110.274 192.214 110.128 192.432 110.027 192.673C109.927 192.914 109.876 193.172 109.875 193.433ZM125.948 213.632C125.959 212.473 126.427 211.365 127.25 210.549C128.073 209.734 129.185 209.276 130.344 209.276C131.503 209.276 132.615 209.734 133.439 210.549C134.262 211.365 134.73 212.473 134.741 213.632V220.452C134.735 221.615 134.269 222.727 133.445 223.547C132.621 224.366 131.506 224.826 130.344 224.826C129.182 224.826 128.067 224.366 127.243 223.547C126.42 222.727 125.954 221.615 125.948 220.452V213.632Z" fill="#2F2E41"/>
<path d="M109.749 250.337V256.006C109.75 256.3 109.867 256.581 110.074 256.789C110.281 256.998 110.562 257.116 110.856 257.118H150.079C150.373 257.117 150.654 256.999 150.862 256.79C151.069 256.582 151.185 256.3 151.185 256.006V250.337H109.749Z" fill="#3F3D56"/>
<path d="M45.0874 104.867V212.199C45.0885 213.567 45.6323 214.878 46.5996 215.845C47.5668 216.812 48.8783 217.356 50.2461 217.357H209.307C210.675 217.356 211.987 216.812 212.954 215.845C213.921 214.878 214.465 213.567 214.466 212.199V104.867C214.463 103.501 213.918 102.191 212.951 101.225C211.984 100.26 210.674 99.7163 209.307 99.7146H50.2461C48.8795 99.7163 47.5692 100.26 46.6023 101.225C45.6354 102.191 45.0907 103.501 45.0874 104.867Z" fill="#3F3D56"/>
<path d="M48.8188 106.203V210.875C48.8201 211.606 49.111 212.306 49.6278 212.823C50.1445 213.34 50.8451 213.63 51.5759 213.632H207.983C208.714 213.63 209.415 213.34 209.931 212.823C210.448 212.306 210.739 211.606 210.74 210.875V106.203C210.74 105.471 210.45 104.769 209.933 104.251C209.416 103.733 208.715 103.442 207.983 103.44H51.5759C50.8442 103.442 50.143 103.733 49.6261 104.251C49.1092 104.769 48.8189 105.471 48.8188 106.203Z" fill="white"/>
<path d="M77.8454 256.734C78.0046 256.934 78.207 257.095 78.4373 257.205C78.6676 257.315 78.9199 257.372 79.1752 257.37H172.227C172.482 257.37 172.733 257.313 172.963 257.203C173.192 257.094 173.395 256.934 173.555 256.737C173.715 256.539 173.83 256.308 173.89 256.061C173.949 255.813 173.953 255.556 173.901 255.307L172.457 248.446C172.397 248.166 172.268 247.906 172.082 247.689C171.896 247.471 171.658 247.304 171.391 247.202C171.197 247.126 170.991 247.087 170.783 247.088H80.614C80.406 247.087 80.1999 247.126 80.0064 247.202C79.739 247.304 79.5014 247.471 79.3152 247.689C79.129 247.906 79.0001 248.166 78.9402 248.446L77.4958 255.307C77.4444 255.556 77.4491 255.813 77.5096 256.06C77.5701 256.307 77.6848 256.537 77.8454 256.734Z" fill="#2F2E41"/>
<path d="M202.907 117.859H56.5577C56.4056 117.856 56.2609 117.793 56.1545 117.684C56.0481 117.575 55.9885 117.429 55.9885 117.277C55.9885 117.125 56.0481 116.979 56.1545 116.87C56.2609 116.761 56.4056 116.699 56.5577 116.695H202.907C203.06 116.699 203.204 116.761 203.311 116.87C203.417 116.979 203.477 117.125 203.477 117.277C203.477 117.429 203.417 117.575 203.311 117.684C203.204 117.793 203.06 117.856 202.907 117.859Z" fill="#3F3D56"/>
<path d="M66.5199 113.724C68.4036 113.724 69.9306 112.163 69.9306 110.237C69.9306 108.312 68.4036 106.751 66.5199 106.751C64.6362 106.751 63.1091 108.312 63.1091 110.237C63.1091 112.163 64.6362 113.724 66.5199 113.724Z" fill="#3F3D56"/>
<path d="M78.3023 113.724C80.186 113.724 81.7131 112.163 81.7131 110.237C81.7131 108.312 80.186 106.751 78.3023 106.751C76.4186 106.751 74.8916 108.312 74.8916 110.237C74.8916 112.163 76.4186 113.724 78.3023 113.724Z" fill="#3F3D56"/>
<path d="M90.0851 113.724C91.9688 113.724 93.4958 112.163 93.4958 110.237C93.4958 108.312 91.9688 106.751 90.0851 106.751C88.2014 106.751 86.6743 108.312 86.6743 110.237C86.6743 112.163 88.2014 113.724 90.0851 113.724Z" fill="#3F3D56"/>
<path d="M195.812 107.613H187.444C187.278 107.617 187.121 107.685 187.005 107.803C186.889 107.922 186.825 108.081 186.825 108.246C186.825 108.412 186.889 108.571 187.005 108.689C187.121 108.807 187.278 108.876 187.444 108.88H195.812C195.979 108.877 196.137 108.809 196.254 108.691C196.371 108.572 196.437 108.413 196.437 108.246C196.437 108.08 196.371 107.92 196.254 107.801C196.137 107.683 195.979 107.615 195.812 107.613Z" fill="#3F3D56"/>
<path d="M195.812 109.992H187.444C187.278 109.995 187.12 110.064 187.005 110.182C186.889 110.3 186.824 110.459 186.824 110.625C186.824 110.79 186.889 110.949 187.005 111.068C187.12 111.186 187.278 111.255 187.444 111.258H195.812C195.979 111.256 196.138 111.189 196.255 111.07C196.372 110.951 196.438 110.792 196.438 110.625C196.438 110.458 196.372 110.298 196.255 110.18C196.138 110.061 195.979 109.994 195.812 109.992Z" fill="#3F3D56"/>
<path d="M195.812 112.37H187.444C187.278 112.374 187.121 112.442 187.005 112.561C186.889 112.679 186.825 112.838 186.825 113.003C186.825 113.169 186.889 113.328 187.005 113.446C187.121 113.565 187.278 113.633 187.444 113.637H195.812C195.979 113.634 196.137 113.567 196.254 113.448C196.371 113.33 196.437 113.17 196.437 113.003C196.437 112.837 196.371 112.677 196.254 112.559C196.137 112.44 195.979 112.372 195.812 112.37Z" fill="#3F3D56"/>
<path d="M397.564 252.825C397.817 253.56 398.296 254.197 398.933 254.643C399.57 255.089 400.331 255.322 401.109 255.308L416.293 254.917C417.076 254.902 417.834 254.633 418.451 254.152C419.069 253.671 419.515 253.003 419.722 252.248L421.87 229.271C422.633 229.616 423.463 229.787 424.3 229.77C425.027 229.752 425.743 229.591 426.408 229.295C427.072 229 427.672 228.577 428.174 228.05C428.675 227.523 429.067 226.903 429.329 226.224C429.59 225.546 429.715 224.822 429.697 224.095C429.679 223.368 429.517 222.652 429.222 221.987C428.927 221.323 428.504 220.723 427.977 220.222C427.45 219.72 426.83 219.328 426.151 219.067C425.472 218.805 424.749 218.68 424.022 218.698C423.687 218.697 423.354 218.732 423.027 218.802C422.671 218.417 422.238 218.111 421.757 217.903C421.276 217.696 420.757 217.591 420.233 217.596L396.875 218.2C396.681 218.207 396.488 218.231 396.299 218.271C395.786 218.367 395.301 218.571 394.874 218.87C394.447 219.169 394.089 219.556 393.825 220.004C393.56 220.453 393.395 220.954 393.34 221.472C393.284 221.99 393.341 222.514 393.505 223.008L397.564 252.825ZM422.311 227.711L423.84 222.235C424.014 221.603 424.018 220.936 423.852 220.301C423.926 220.301 423.992 220.266 424.066 220.266C425.114 220.244 426.128 220.639 426.886 221.364C427.644 222.089 428.083 223.085 428.108 224.133C428.132 225.181 427.74 226.197 427.017 226.956C426.294 227.716 425.3 228.158 424.251 228.185C423.573 228.206 422.903 228.042 422.311 227.711Z" fill="#2F2E41"/>
<path d="M396.299 218.271C396.796 221.116 402.391 223.117 409.119 222.769C415.305 222.484 420.363 220.312 421.29 217.737C420.947 217.636 420.59 217.588 420.233 217.596L396.875 218.2C396.681 218.207 396.488 218.231 396.299 218.271Z" fill="#3F3D56"/>
<path d="M410.352 240.199C410.382 240.192 410.412 240.179 410.438 240.161L413.736 238.003C413.776 237.977 413.809 237.941 413.831 237.9C413.854 237.858 413.866 237.811 413.866 237.763C413.866 237.716 413.854 237.669 413.831 237.627C413.809 237.585 413.776 237.55 413.736 237.524L410.309 235.279C410.277 235.258 410.242 235.244 410.205 235.236C410.168 235.229 410.13 235.229 410.093 235.237C410.056 235.245 410.021 235.259 409.989 235.281C409.958 235.302 409.932 235.329 409.911 235.361C409.89 235.392 409.876 235.427 409.869 235.464C409.862 235.502 409.862 235.54 409.87 235.577C409.878 235.613 409.893 235.648 409.914 235.68C409.936 235.711 409.963 235.737 409.994 235.758L413.056 237.763L410.125 239.682C410.068 239.719 410.026 239.775 410.007 239.84C409.987 239.905 409.992 239.975 410.019 240.037C410.046 240.099 410.095 240.149 410.156 240.179C410.216 240.209 410.286 240.216 410.352 240.199H410.352Z" fill="#6C63FF"/>
<path d="M405.143 240.44C405.199 240.426 405.248 240.395 405.286 240.353C405.325 240.31 405.349 240.257 405.357 240.201C405.365 240.144 405.355 240.087 405.33 240.035C405.305 239.984 405.265 239.942 405.215 239.913L402.176 238.171L405.114 235.988C405.144 235.966 405.169 235.938 405.189 235.905C405.208 235.873 405.221 235.837 405.226 235.8C405.232 235.763 405.23 235.725 405.221 235.689C405.212 235.652 405.195 235.618 405.173 235.588C405.15 235.557 405.122 235.532 405.09 235.513C405.058 235.493 405.022 235.481 404.985 235.475C404.947 235.47 404.91 235.472 404.873 235.481C404.837 235.49 404.802 235.506 404.772 235.529L401.483 237.972C401.445 238 401.414 238.038 401.394 238.081C401.374 238.124 401.365 238.171 401.367 238.219C401.37 238.266 401.385 238.312 401.41 238.353C401.435 238.393 401.47 238.427 401.511 238.45L404.93 240.41C404.995 240.447 405.071 240.458 405.143 240.44Z" fill="#6C63FF"/>
<path d="M410.024 242.091C410.051 242.084 410.078 242.073 410.102 242.058C410.134 242.038 410.162 242.012 410.185 241.982C410.207 241.952 410.223 241.917 410.232 241.881C410.241 241.844 410.242 241.806 410.237 241.769C410.231 241.732 410.218 241.696 410.198 241.664L405.524 233.979C405.484 233.914 405.42 233.867 405.346 233.849C405.273 233.832 405.195 233.844 405.13 233.883C405.065 233.923 405.018 233.987 405 234.06C404.982 234.134 404.994 234.212 405.034 234.277L409.708 241.962C409.74 242.014 409.788 242.055 409.845 242.078C409.902 242.101 409.964 242.106 410.024 242.091Z" fill="#6C63FF"/>
<path d="M147.219 149.498H121.889C120.856 149.498 120.018 150.335 120.018 151.369V153.843C120.018 154.877 120.856 155.714 121.889 155.714H147.219C148.252 155.714 149.09 154.877 149.09 153.843V151.369C149.09 150.335 148.252 149.498 147.219 149.498Z" fill="#6C63FF"/>
<path d="M161.983 161.931H107.124C106.091 161.931 105.253 162.768 105.253 163.802V166.276C105.253 167.309 106.091 168.147 107.124 168.147H161.983C163.017 168.147 163.854 167.309 163.854 166.276V163.802C163.854 162.768 163.017 161.931 161.983 161.931Z" fill="#E6E6E6"/>
<path d="M161.983 174.363H107.124C106.091 174.363 105.253 175.201 105.253 176.234V178.709C105.253 179.742 106.091 180.58 107.124 180.58H161.983C163.017 180.58 163.854 179.742 163.854 178.709V176.234C163.854 175.201 163.017 174.363 161.983 174.363Z" fill="#E6E6E6"/>
<path d="M166.634 215.996L166.758 216.388L166.765 216.401L170.505 227.772L174.807 240.875L182.902 265.499L182.981 269.324V269.337L183.582 300.108L181.915 304.279L183.792 311.118C183.792 311.118 182.928 300.78 178.299 306.717C175.677 310.091 172.61 313.543 170.093 316.78C173.761 318.264 177.488 319.607 181.274 320.808C182.092 321.069 182.915 321.318 183.739 321.566C183.916 321.618 184.092 321.671 184.269 321.723C196.819 325.434 209.793 327.52 222.874 327.928C223.554 327.948 224.221 327.961 224.868 327.974C225.097 327.98 225.32 327.987 225.542 327.987C226.274 327.994 227 328 227.732 328C229.21 328 230.681 327.978 232.146 327.935C242.987 327.629 253.765 326.172 264.297 323.587C264.225 319.238 264.029 314.158 263.748 308.731C263.617 306.07 260.681 303.186 260.505 300.401C260.381 298.309 263.016 296.341 262.878 294.216C261.989 281.132 260.878 286.154 260.054 276.889C259.969 275.98 259.89 275.111 259.818 274.28C259.289 268.33 258.922 264.61 258.922 264.61L262.44 242.438L267.966 207.627L267.541 206.927L267.063 206.692L237.92 192.268L236.337 188.214C235.876 187.046 235.076 186.043 234.04 185.333C233.005 184.624 231.78 184.24 230.524 184.232L211.326 184.154C210.33 184.149 209.347 184.382 208.459 184.834C207.571 185.285 206.803 185.942 206.22 186.749L201.021 193.948L166.634 215.996Z" fill="#3F3D56"/>
<path d="M187.329 260.02L182.981 269.324L180.012 275.68L174.905 302.416L172.349 305.129L170.158 295.523L147.232 300.613C146.48 296.435 147.03 300.755 146.566 296.171C146.697 296.041 146.834 295.91 146.972 295.779C147.338 295.439 147.645 295.119 147.639 294.811C147.377 279.001 148.162 252.095 154.714 235.795C155.74 233.133 157.093 230.61 158.741 228.282C158.872 228.105 158.996 227.929 159.121 227.752C162.142 223.522 164.051 219.357 166.758 216.395V216.388C166.775 216.375 166.79 216.359 166.804 216.343C166.814 216.338 166.822 216.331 166.83 216.323L185.426 206.463L186.224 228.877L186.793 244.988L187.329 260.02Z" fill="#3F3D56"/>
<path d="M254.384 262.663L259.816 274.284L261.711 278.331L266.817 305.064L269.365 307.771L271.561 298.167L272.592 297.956L291.197 294.103L296.62 311.324C297.842 309.288 298.324 306.892 297.983 304.542C297.642 302.191 296.501 300.031 294.751 298.425C294.38 298.09 294.072 297.764 294.08 297.455C294.389 278.86 293.252 244.905 282.979 230.93C279.717 226.495 277.759 222.077 274.911 218.991C274.902 218.983 274.902 218.974 274.894 218.974L267.963 207.626L267.54 206.929L267.064 206.691L254.384 262.663Z" fill="#3F3D56"/>
<path d="M221.48 178.69C235.586 178.69 247.02 167.256 247.02 153.151C247.02 139.046 235.586 127.611 221.48 127.611C207.374 127.611 195.939 139.046 195.939 153.151C195.939 167.256 207.374 178.69 221.48 178.69Z" fill="#FFB6B6"/>
<path d="M256.001 135.312C255.803 135.1 255.564 134.931 255.3 134.814C255.035 134.696 254.749 134.634 254.459 134.63L254.843 133.564C254.968 133.228 255.002 132.865 254.941 132.511C254.88 132.158 254.726 131.828 254.495 131.554C254.264 131.28 253.964 131.072 253.627 130.952C253.289 130.831 252.926 130.803 252.573 130.87L251.175 131.139L251.307 130.205C251.357 129.857 251.316 129.502 251.188 129.174C251.06 128.847 250.848 128.559 250.575 128.338C250.301 128.117 249.975 127.971 249.628 127.914C249.281 127.858 248.925 127.893 248.595 128.015C248.296 128.133 247.973 128.183 247.652 128.16C247.33 128.137 247.018 128.043 246.738 127.883C246.457 127.729 246.213 127.515 246.023 127.257C245.833 126.999 245.701 126.702 245.638 126.387L245.15 124.037L245.099 123.911C242.726 119.957 238.163 117.079 232.58 116.025C227.611 115.079 222.515 115.56 217.603 116.013C215.654 116.197 213.453 116.403 211.619 117.526C210.06 118.489 208.741 120.415 209.011 122.358C204.167 120.874 198.974 123.837 196.4 127.574C193.351 132.022 192.852 137.593 192.772 141.949C192.554 152.255 194.681 160.686 199.077 167.014C199.398 167.472 199.478 168.429 200.115 168.75L199.983 168.538C200.694 168.894 201.416 169.467 201.146 170.08C200.373 171.845 205.514 175.749 209.137 177.038C215.746 179.394 224.533 179.193 230.712 178.345L230.93 176.884C233.159 176.58 234.73 176.001 235.171 175.095C235.951 174.43 236.616 173.834 237.195 173.284L237.2 173.278C237.212 173.267 237.235 173.25 237.246 173.238C240.038 170.562 240.685 169.037 240.978 166.716C241.258 164.44 240.76 162.13 240.25 160.05C250.991 161.712 236.019 148.609 246.027 146.076C246.142 146.04 246.259 146.012 246.377 145.99C246.669 145.921 246.962 145.852 247.243 145.772C248.596 145.405 249.893 144.851 251.094 144.127C253.892 142.425 254.814 140.166 256.259 137.622C256.467 137.259 256.555 136.84 256.508 136.424C256.462 136.009 256.284 135.619 256.001 135.312Z" fill="#2F2E41"/>
<path d="M311.813 264.481C311.807 265.484 311.796 266.888 311.75 268.625C311.744 268.866 311.738 269.112 311.732 269.364C311.658 272.557 311.583 275.234 311.463 278.208C311.457 278.415 311.452 278.615 311.44 278.822C311.28 282.971 311.027 287.803 310.592 295.455C309.784 309.589 308.374 297.398 306.958 302.356C306.889 302.602 306.814 302.895 306.746 303.239C306.531 304.486 306.17 305.704 305.668 306.867C304.917 307.314 304.143 307.744 303.381 308.174C301.209 309.383 299.002 310.546 296.778 311.653C295.528 312.272 294.273 312.879 293.012 313.464C292.811 313.556 292.617 313.647 292.422 313.733C285.964 316.72 279.309 319.259 272.503 321.334C271.173 321.735 269.849 322.124 268.508 322.486C267.109 322.875 265.711 323.242 264.295 323.586C253.763 326.172 242.985 327.63 232.145 327.936C230.683 327.982 229.21 327.999 227.731 327.999C226.997 327.999 226.275 327.994 225.541 327.988C225.318 327.988 225.094 327.982 224.871 327.977C224.223 327.959 223.552 327.948 222.876 327.931C209.795 327.523 196.821 325.436 184.271 321.723L183.738 321.568C182.913 321.316 182.093 321.07 181.274 320.806C177.491 319.608 173.763 318.267 170.091 316.783C167.288 315.653 164.517 314.442 161.779 313.149C161.754 313.142 161.731 313.13 161.711 313.114C161.137 312.851 160.558 312.575 159.985 312.295C159.911 312.255 159.831 312.214 159.75 312.174C157.612 311.131 155.497 310.038 153.405 308.896C151.645 304.855 149.169 304.081 147.633 300.527C147.186 299.472 146.863 298.368 146.67 297.237C146.67 297.226 146.664 297.215 146.664 297.197C146.825 299.33 145.982 293.414 146.659 297.174C146.653 297.106 146.647 297.031 146.641 296.945C146.624 296.739 146.601 296.487 146.567 296.171C144.601 276.976 144.727 255.024 143.873 236.934C143.816 235.765 143.756 234.646 143.695 233.576C143.678 233.22 143.655 232.871 143.632 232.527C143.672 232.424 143.718 232.315 143.77 232.212C143.781 232.182 143.794 232.153 143.81 232.126C143.827 232.09 143.846 232.056 143.867 232.022C143.879 232.005 143.896 231.982 143.907 231.965C143.916 231.945 143.925 231.926 143.936 231.908C143.987 231.828 144.045 231.742 144.108 231.661C144.136 231.627 144.159 231.598 144.188 231.57C144.208 231.54 144.231 231.513 144.257 231.489C144.274 231.462 144.296 231.437 144.32 231.415C144.343 231.392 144.366 231.363 144.394 231.335C144.407 231.317 144.422 231.301 144.44 231.289C144.486 231.237 144.535 231.189 144.589 231.145C144.794 230.957 145.012 230.785 145.243 230.63C145.323 230.578 145.409 230.526 145.489 230.469C146.067 230.124 146.675 229.832 147.306 229.598C147.524 229.518 147.742 229.443 147.977 229.363C148.063 229.34 148.143 229.311 148.229 229.283C148.355 229.243 148.481 229.202 148.613 229.174C149.267 228.979 149.972 228.813 150.734 228.658C150.826 228.641 150.923 228.624 151.021 228.601C151.158 228.572 151.301 228.549 151.445 228.526C151.64 228.492 151.84 228.457 152.041 228.423C153.743 228.154 155.675 227.953 157.807 227.821C158.008 227.81 158.208 227.798 158.409 227.787C158.644 227.775 158.879 227.764 159.12 227.752C159.32 227.741 159.527 227.735 159.733 227.729C159.934 227.718 160.14 227.712 160.352 227.706C160.931 227.689 161.527 227.672 162.135 227.661C163.866 227.626 165.689 227.638 167.603 227.678C168.491 227.701 169.397 227.724 170.326 227.764C170.389 227.764 170.446 227.77 170.503 227.77C171.312 227.798 172.126 227.833 172.962 227.878C173.547 227.907 174.137 227.936 174.728 227.97C175.284 228.005 175.846 228.039 176.413 228.079C176.854 228.102 177.296 228.136 177.743 228.165C178.121 228.194 178.499 228.222 178.878 228.245L179.394 228.28C179.674 228.303 179.955 228.32 180.242 228.348C180.872 228.4 181.503 228.452 182.145 228.503C182.781 228.561 183.429 228.618 184.077 228.675C184.724 228.732 185.378 228.796 186.031 228.859C186.1 228.864 186.163 228.87 186.226 228.876C186.822 228.939 187.418 228.996 188.02 229.059C188.158 229.071 188.301 229.082 188.439 229.099C189.012 229.157 189.597 229.224 190.176 229.286C190.354 229.305 190.531 229.324 190.709 229.343C191.163 229.393 191.61 229.435 192.067 229.489C192.669 229.558 193.282 229.621 193.878 229.701C194.342 229.753 194.807 229.804 195.271 229.862C195.999 229.948 196.738 230.039 197.478 230.137C197.759 230.171 198.04 230.205 198.32 230.246C200.43 230.509 202.562 230.802 204.729 231.105C208.013 231.57 211.349 232.074 214.708 232.619C218.073 233.163 221.456 233.738 224.859 234.344C225.719 234.499 226.579 234.653 227.444 234.814C227.834 234.888 228.224 234.963 228.614 235.037C229.279 235.158 229.943 235.284 230.608 235.41C231.273 235.536 231.938 235.662 232.603 235.794C233.394 235.949 234.191 236.103 234.982 236.258C240.192 237.29 245.374 238.39 250.429 239.542C251.261 239.731 252.092 239.926 252.917 240.116C254.568 240.5 256.203 240.889 257.824 241.285C258.271 241.388 258.712 241.497 259.153 241.606C260.254 241.881 261.354 242.156 262.438 242.437L262.627 242.488C263.424 242.683 264.203 242.884 264.983 243.09C266.823 243.572 268.632 244.059 270.411 244.552C271.592 244.879 272.759 245.209 273.913 245.543C275.638 246.042 277.329 246.546 278.974 247.057C279.381 247.183 279.788 247.309 280.19 247.429C281.393 247.802 282.58 248.18 283.732 248.558C284.649 248.856 285.543 249.16 286.426 249.464C287.309 249.768 288.174 250.071 289.023 250.375C289.567 250.57 290.106 250.776 290.645 250.971C291.418 251.258 292.181 251.545 292.926 251.831C293.155 251.917 293.379 252.009 293.602 252.095C293.746 252.158 293.883 252.209 294.021 252.267C294.29 252.376 294.565 252.479 294.829 252.588C295.098 252.691 295.362 252.8 295.626 252.914C295.884 253.018 296.147 253.126 296.4 253.235C296.657 253.339 296.91 253.447 297.162 253.562C297.374 253.648 297.58 253.74 297.781 253.831C298.188 254.009 298.595 254.187 298.99 254.37C299.185 254.462 299.38 254.548 299.575 254.64L300.022 254.846C300.085 254.88 300.148 254.909 300.211 254.938C300.355 255.006 300.504 255.081 300.647 255.15C300.979 255.304 301.306 255.471 301.627 255.625C302.057 255.843 302.475 256.061 302.877 256.273C303.284 256.491 303.679 256.709 304.057 256.921C304.12 256.955 304.178 256.99 304.241 257.024C304.327 257.07 304.413 257.121 304.499 257.167C304.791 257.334 305.072 257.505 305.353 257.672C305.903 258.01 306.425 258.342 306.912 258.675C307.021 258.749 307.124 258.824 307.233 258.892C307.594 259.15 307.938 259.403 308.259 259.661C308.259 259.666 308.259 259.666 308.265 259.666C308.374 259.747 308.477 259.832 308.58 259.913C308.666 259.993 308.758 260.062 308.844 260.142C309.142 260.4 309.417 260.646 309.669 260.899C309.753 260.976 309.834 261.059 309.91 261.145C309.943 261.173 309.974 261.203 310.001 261.237C310.116 261.351 310.219 261.466 310.317 261.581C310.332 261.596 310.345 261.614 310.357 261.632C310.494 261.793 310.62 261.953 310.741 262.114C310.798 262.194 310.861 262.274 310.913 262.354C310.982 262.452 311.05 262.555 311.108 262.652C311.159 262.733 311.205 262.819 311.251 262.899C311.373 263.106 311.476 263.322 311.56 263.547C311.625 263.699 311.677 263.856 311.715 264.017C311.759 264.169 311.791 264.324 311.813 264.481Z" fill="#2F2E41"/>
<path opacity="0.2" d="M311.813 264.481C311.807 265.484 311.796 266.888 311.75 268.625C311.744 268.866 311.733 269.112 311.727 269.364C311.67 271.8 311.584 274.809 311.463 278.208C311.458 278.415 311.452 278.615 311.44 278.822C311.28 282.971 311.028 287.803 310.592 295.455C309.784 309.589 308.374 297.398 306.958 302.356C303.026 299.937 298.715 297.404 294.107 294.802C293.276 294.332 292.437 293.86 291.591 293.386C282.374 288.244 272.079 282.857 261.332 277.521C260.908 277.308 260.478 277.096 260.054 276.89C235.435 264.722 208.564 252.886 186.794 244.987C182.592 243.463 178.58 242.087 174.808 240.878C166.864 238.339 159.997 236.562 154.712 235.794C149.209 234.991 145.409 235.278 143.873 236.934C143.816 235.765 143.756 234.646 143.695 233.576C143.672 233.22 143.649 232.871 143.626 232.527C143.662 232.432 143.708 232.342 143.752 232.252C143.759 232.238 143.763 232.225 143.77 232.212C143.781 232.182 143.794 232.153 143.81 232.126C143.827 232.09 143.846 232.056 143.867 232.022C143.886 231.982 143.909 231.943 143.936 231.908C143.988 231.827 144.045 231.742 144.108 231.661C144.154 231.601 144.204 231.544 144.257 231.489C144.275 231.462 144.296 231.437 144.32 231.415C144.343 231.392 144.366 231.363 144.395 231.335C144.407 231.317 144.422 231.301 144.44 231.289C144.486 231.237 144.536 231.189 144.589 231.145C144.794 230.957 145.012 230.785 145.243 230.63C145.323 230.578 145.409 230.526 145.489 230.469C146.067 230.124 146.675 229.832 147.306 229.598C147.524 229.518 147.742 229.443 147.977 229.363C148.063 229.34 148.143 229.311 148.229 229.283C148.355 229.243 148.481 229.202 148.613 229.174C149.267 228.979 149.972 228.813 150.734 228.658C150.963 228.612 151.204 228.566 151.445 228.526C151.64 228.492 151.84 228.457 152.041 228.423C153.743 228.154 155.675 227.953 157.807 227.821C158.008 227.81 158.209 227.798 158.409 227.787C158.644 227.775 158.879 227.764 159.12 227.752C159.321 227.741 159.527 227.735 159.733 227.729C159.934 227.718 160.14 227.712 160.352 227.706C160.931 227.689 161.527 227.672 162.135 227.661C163.866 227.632 165.689 227.643 167.603 227.683C168.492 227.701 169.397 227.729 170.326 227.769C170.383 227.769 170.446 227.775 170.504 227.775C171.312 227.798 172.131 227.838 172.963 227.878C173.547 227.907 174.138 227.936 174.728 227.97C175.284 228.004 175.846 228.039 176.413 228.079C176.854 228.102 177.296 228.136 177.743 228.165C178.121 228.194 178.5 228.222 178.878 228.245C179.331 228.28 179.783 228.314 180.242 228.348C180.873 228.4 181.503 228.452 182.145 228.503C182.781 228.56 183.429 228.618 184.077 228.675C184.724 228.732 185.378 228.795 186.031 228.858C186.1 228.864 186.163 228.87 186.226 228.876C186.822 228.939 187.418 228.996 188.02 229.059C191.356 229.397 194.79 229.793 198.321 230.246C200.43 230.515 202.566 230.803 204.729 231.111C208.013 231.575 211.349 232.08 214.708 232.618C218.073 233.163 221.457 233.738 224.859 234.344C225.719 234.498 226.579 234.653 227.445 234.814C228.499 235.009 229.554 235.207 230.609 235.41C231.273 235.536 231.938 235.662 232.603 235.794C233.394 235.949 234.191 236.103 234.982 236.258C240.192 237.29 245.374 238.39 250.43 239.542C251.261 239.731 252.092 239.926 252.917 240.116C254.568 240.5 256.204 240.889 257.824 241.285C258.271 241.394 258.712 241.503 259.154 241.611C260.26 241.887 261.355 242.162 262.438 242.437V242.443C262.501 242.454 262.564 242.471 262.627 242.488C263.418 242.689 264.203 242.89 264.983 243.096C266.823 243.577 268.632 244.063 270.411 244.552C271.592 244.884 272.761 245.211 273.913 245.543C275.639 246.048 277.33 246.552 278.975 247.057C279.382 247.183 279.789 247.309 280.19 247.429C281.393 247.807 282.574 248.184 283.732 248.558C284.649 248.856 285.543 249.16 286.426 249.464C287.309 249.768 288.174 250.071 289.023 250.375C289.573 250.57 290.112 250.771 290.645 250.966C291.424 251.252 292.181 251.539 292.926 251.831C293.155 251.917 293.379 252.009 293.602 252.095C294.021 252.255 294.428 252.421 294.829 252.588C295.099 252.691 295.362 252.8 295.626 252.914C295.884 253.018 296.147 253.126 296.4 253.235C296.658 253.339 296.91 253.447 297.162 253.562C297.374 253.648 297.58 253.74 297.781 253.831C298.188 254.009 298.595 254.187 298.991 254.37C299.185 254.462 299.38 254.548 299.575 254.64L300.022 254.846C300.085 254.88 300.148 254.909 300.211 254.938C300.699 255.167 301.169 255.396 301.627 255.625C302.057 255.843 302.476 256.061 302.877 256.273C303.353 256.525 303.805 256.772 304.241 257.024C304.327 257.07 304.413 257.121 304.499 257.167C304.791 257.333 305.072 257.505 305.353 257.672C305.903 258.01 306.425 258.342 306.912 258.675C307.394 259.007 307.841 259.334 308.259 259.661C308.259 259.666 308.259 259.666 308.265 259.666C308.465 259.827 308.66 259.987 308.844 260.142C309.142 260.4 309.417 260.646 309.669 260.899C309.754 260.976 309.834 261.059 309.91 261.145C309.943 261.173 309.974 261.203 310.002 261.237C310.122 261.369 310.242 261.5 310.357 261.632C310.495 261.793 310.621 261.953 310.741 262.114C310.798 262.194 310.861 262.274 310.913 262.354C310.982 262.452 311.051 262.555 311.108 262.652C311.159 262.733 311.205 262.819 311.251 262.899C311.373 263.106 311.476 263.322 311.561 263.547C311.623 263.699 311.675 263.856 311.715 264.017C311.759 264.169 311.791 264.324 311.813 264.481Z" fill="black"/>
</g>
<defs>
<clipPath id="clip0_701_2">
<rect width="451" height="328" fill="white"/>
</clipPath>
</defs>
</svg>
